<svg width="14" height="16" viewBox="0 0 14 16" fill="none" xmlns="http://www.w3.org/2000/svg">
<path d="M9.3689 4.8657C9.05532 4.9196 8.24945 4.9617 7.96391 4.97518C8.07165 4.79749 8.14523 4.60127 8.18114 4.39748C8.19428 4.30654 8.12858 4.22148 8.03398 4.20717C7.98756 4.20043 7.94026 4.21054 7.90259 4.23748C7.86493 4.26443 7.8404 4.30485 7.83427 4.34864C7.78697 4.58274 7.68449 4.80339 7.53646 4.9937C7.02843 5.01054 6.51687 5.01054 6.00884 4.9937C5.8608 4.80338 5.75919 4.58276 5.71277 4.34864C5.70664 4.30485 5.68212 4.26443 5.64533 4.23832C5.60766 4.21137 5.56036 4.20043 5.51481 4.20716C5.41846 4.22064 5.35189 4.30653 5.36591 4.39916C5.40182 4.60296 5.47452 4.79833 5.58226 4.97686C5.29846 4.9617 4.42252 4.90949 4.172 4.86401C0.617374 3.22357 3.22951 0.260926 4.8342 0.985279C4.82895 1.00128 4.82544 1.01812 4.82194 1.03412C4.75274 1.35245 4.7834 1.68339 4.91128 1.98401C4.9472 2.07075 5.0488 2.11286 5.13902 2.07833C5.22924 2.04465 5.27304 1.94612 5.23712 1.85939C5.13376 1.62106 5.10924 1.35749 5.1653 1.10485C5.3072 0.464836 5.98341 0 6.77176 0C7.5601 0 8.23631 0.464836 8.37823 1.10653C8.43517 1.35917 8.41064 1.62106 8.30816 1.85939C8.29064 1.90149 8.29151 1.94781 8.31078 1.98907C8.32918 2.03034 8.36422 2.06234 8.40801 2.07834C8.42816 2.08676 8.44918 2.09097 8.47108 2.09013C8.54378 2.09097 8.6086 2.04802 8.634 1.98233C8.76189 1.68255 8.79255 1.35159 8.72159 1.03412C8.71809 1.01728 8.71283 1.00044 8.70933 0.983595C10.3149 0.262735 12.927 3.22685 9.3689 4.8657Z" fill="black"/>
<path d="M9.27428 5.21419C8.30725 5.32367 7.05115 5.34219 6.77267 5.34219C6.49412 5.34219 4.63541 5.26977 4.27286 5.21419C2.74524 5.87441 0 8.83854 0 11.5115C0 14.4723 3.14629 15.9999 6.77267 15.9999C10.3991 15.9999 13.5453 14.4723 13.5453 11.5115C13.5453 8.83876 10.8002 5.87452 9.27428 5.21419ZM6.86887 10.2383C7.5521 10.2383 8.10918 10.6998 8.10918 11.2674C8.10918 11.7844 7.64494 12.2139 7.04405 12.2846V12.8556C7.04405 12.9491 6.96521 13.024 6.86886 13.024C6.77163 13.024 6.69367 12.9491 6.69367 12.8556V12.2846C6.09278 12.2139 5.62854 11.7844 5.62854 11.2674C5.62854 11.1747 5.7065 11.0989 5.80373 11.0989C5.90008 11.0989 5.97891 11.1747 5.97891 11.2674C5.97891 11.648 6.37833 11.9596 6.86887 11.9596C7.35942 11.9596 7.75883 11.648 7.75883 11.2674C7.75883 10.8867 7.35942 10.5752 6.86887 10.5752C6.18564 10.5752 5.62856 10.1137 5.62856 9.5461C5.62856 9.02737 6.0928 8.59957 6.6937 8.52882V7.95619C6.6937 7.86356 6.77165 7.78777 6.86888 7.78777C6.96524 7.78777 7.04407 7.86356 7.04407 7.95619V8.52882C7.64496 8.59955 8.1092 9.02735 8.1092 9.5461C8.1092 9.63957 8.03037 9.71452 7.93402 9.71452C7.83679 9.71452 7.75883 9.63957 7.75883 9.5461C7.75883 9.16379 7.35942 8.85389 6.86887 8.85389C6.37833 8.85389 5.97891 9.16379 5.97891 9.5461C5.97891 9.92841 6.37833 10.2383 6.86887 10.2383Z" fill="black"/>
<path d="M11.938 4.85384L12.1474 5.221C12.1535 5.23278 12.164 5.24289 12.1763 5.24963L12.559 5.45005C12.5827 5.46268 12.5976 5.48626 12.5976 5.51237C12.5976 5.53847 12.5827 5.56289 12.559 5.57553L12.1771 5.77679L12.1763 5.77595C12.164 5.78268 12.1535 5.79279 12.1474 5.80458L11.938 6.17258C11.9249 6.19531 11.9003 6.20963 11.8732 6.20963C11.846 6.20963 11.8206 6.19531 11.8084 6.17258L11.599 5.80542V5.80458C11.592 5.79279 11.5815 5.78268 11.5692 5.77679L11.1882 5.57552C11.1646 5.56289 11.1497 5.53931 11.1497 5.51321C11.1497 5.4871 11.1646 5.46268 11.1882 5.45005L11.5701 5.24878V5.24963C11.5824 5.24289 11.5929 5.23278 11.5999 5.22099L11.8092 4.85384C11.8224 4.8311 11.8469 4.81763 11.8732 4.81763C11.9003 4.81763 11.9249 4.8311 11.938 4.85384Z" fill="black"/>
<path d="M13.033 1.97661L13.3395 2.51557C13.3492 2.53241 13.3649 2.54757 13.3825 2.55683L13.9431 2.85241C13.9781 2.8701 14 2.90547 14 2.9442C14 2.9821 13.9781 3.01747 13.9431 3.03599L13.3825 3.33158V3.33073C13.3649 3.34084 13.3492 3.35516 13.3395 3.37284L13.033 3.91179C13.0137 3.94548 12.9769 3.96569 12.9366 3.96569C12.8972 3.96569 12.8604 3.94548 12.8411 3.91179L12.5346 3.37284C12.524 3.35516 12.5091 3.34084 12.4908 3.33073L11.9302 3.03515V3.03599C11.896 3.01747 11.8741 2.9821 11.8741 2.9442C11.8741 2.90547 11.896 2.8701 11.9302 2.85241L12.4908 2.55683C12.5091 2.54757 12.524 2.53241 12.5346 2.51557L12.8411 1.97661C12.8604 1.94293 12.8972 1.92188 12.9366 1.92188C12.9769 1.92188 13.0137 1.94293 13.033 1.97661Z" fill="black"/>
</svg>
